<svg version="1.1" viewBox="0.0 0.0 715.3149606299213 374.83727034120733" fill="none" stroke="none" stroke-linecap="square" stroke-miterlimit="10" xmlns:xlink="http://www.w3.org/1999/xlink" xmlns="http://www.w3.org/2000/svg"><clipPath id="p.0"><path d="m0 0l715.31494 0l0 374.83728l-715.31494 0l0 -374.83728z" clip-rule="nonzero"/></clipPath><g clip-path="url(#p.0)"><path fill="#000000" fill-opacity="0.0" d="m0 0l715.31494 0l0 374.83728l-715.31494 0z" fill-rule="evenodd"/><path fill="#990000" d="m0 62.47369l0 0c0 -34.503265 27.970425 -62.47369 62.47369 -62.47369l590.3597 0c16.569092 0 32.459473 6.582031 44.1756 18.29812c11.716064 11.716089 18.298096 27.606516 18.298096 44.175568l0 249.88727c0 34.503265 -27.970398 62.473694 -62.473694 62.473694l-590.3597 0c-34.503265 0 -62.47369 -27.970428 -62.47369 -62.473694z" fill-rule="evenodd"/><path stroke="#ffffff" stroke-width="1.0" stroke-linejoin="round" stroke-linecap="butt" d="m0 62.47369l0 0c0 -34.503265 27.970425 -62.47369 62.47369 -62.47369l590.3597 0c16.569092 0 32.459473 6.582031 44.1756 18.29812c11.716064 11.716089 18.298096 27.606516 18.298096 44.175568l0 249.88727c0 34.503265 -27.970398 62.473694 -62.473694 62.473694l-590.3597 0c-34.503265 0 -62.47369 -27.970428 -62.47369 -62.473694z" fill-rule="evenodd"/><path fill="#ffffff" d="m22.643045 46.850395l242.86613 140.56693l-242.86613 140.56693z" fill-rule="evenodd"/><path stroke="#ffffff" stroke-width="1.0" stroke-linejoin="round" stroke-linecap="butt" d="m22.643045 46.850395l242.86613 140.56693l-242.86613 140.56693z" fill-rule="evenodd"/><path fill="#000000" fill-opacity="0.0" d="m265.5092 72.67716l538.8346 0l0 247.24411l-538.8346 0z" fill-rule="evenodd"/><path fill="#ffffff" d="m299.8373 129.93092l5.421875 0.703125q-0.890625 5.609375 -4.546875 8.78125q-3.65625 3.15625 -8.984375 3.15625q-6.65625 0 -10.71875 -4.359375q-4.046875 -4.359375 -4.046875 -12.500008q0 -5.265625 1.734375 -9.203125q1.75 -3.953125 5.3125 -5.921875q3.5625 -1.96875 7.75 -1.96875q5.296875 0 8.65625 2.671875q3.375 2.671875 4.328125 7.59375l-5.359375 0.828125q-0.765625 -3.265625 -2.71875 -4.921875q-1.9375 -1.65625 -4.6875 -1.65625q-4.15625 0 -6.765625 2.984375q-2.59375 2.984375 -2.59375 9.4375q0 6.5468826 2.5 9.515633q2.515625 2.96875 6.546875 2.96875q3.25 0 5.421875 -1.984375q2.171875 -1.984375 2.75 -6.125zm10.15625 -26.609383l0 -6.328125l5.515625 0l0 6.328125l-5.515625 0zm0 38.515633l0 -32.484383l5.515625 0l0 32.484383l-5.515625 0zm34.967102 0l0 -4.09375q-3.078125 4.828125 -9.078125 4.828125q-3.890625 0 -7.15625 -2.140625q-3.25 -2.140625 -5.046875 -5.984375q-1.78125 -3.84375 -1.78125 -8.828133q0 -4.859375 1.625 -8.8125q1.625 -3.96875 4.859375 -6.078125q3.25 -2.109375 7.25 -2.109375q2.9375 0 5.234375 1.234375q2.296875 1.234375 3.734375 3.21875l0 -16.078125l5.46875 0l0 44.843758l-5.109375 0zm-17.40625 -16.218758q0 6.2500076 2.625 9.343758q2.640625 3.078125 6.21875 3.078125q3.609375 0 6.125 -2.953125q2.53125 -2.953125 2.53125 -9.000008q0 -6.671875 -2.578125 -9.796875q-2.5625 -3.125 -6.328125 -3.125q-3.65625 0 -6.125 3.0q-2.46875 3.0 -2.46875 9.453125zm53.42453 5.7500076l5.6875 0.703125q-1.34375 5.0 -4.984375 7.75q-3.640625 2.75 -9.296875 2.75q-7.140625 0 -11.3125 -4.390625q-4.171875 -4.390625 -4.171875 -12.312508q0 -8.203125 4.21875 -12.71875q4.21875 -4.53125 10.953125 -4.53125q6.515625 0 10.640625 4.4375q4.140625 4.421875 4.140625 12.46875q0 0.5 -0.03125 1.46875l-24.234375 0q0.3125 5.3593826 3.03125 8.203133q2.71875 2.84375 6.796875 2.84375q3.015625 0 5.15625 -1.578125q2.15625 -1.59375 3.40625 -5.09375zm-18.078125 -8.890633l18.140625 0q-0.375 -4.109375 -2.078125 -6.15625q-2.640625 -3.1875 -6.828125 -3.1875q-3.796875 0 -6.390625 2.546875q-2.578125 2.53125 -2.84375 6.796875zm30.61206 19.359383l0 -32.484383l4.96875 0l0 4.921875q1.890625 -3.453125 3.5 -4.546875q1.609375 -1.109375 3.53125 -1.109375q2.78125 0 5.65625 1.765625l-1.890625 5.109375q-2.015625 -1.1875 -4.046875 -1.1875q-1.796875 0 -3.234375 1.09375q-1.4375 1.078125 -2.046875 3.0q-0.921875 2.9375 -0.921875 6.421875l0 17.015633l-5.515625 0z" fill-rule="nonzero"/><path fill="#ffffff" d="m412.76852 118.837166q9.296875 -11.015625 11.015625 -27.171875l5.625 1.46875q0.96875 0.984375 -0.734375 1.46875q-1.234375 7.09375 -3.1875 12.71875q2.6875 0.25 0.5 1.71875l0 38.187508l-4.90625 0l0 -30.843758q-1.703125 3.421875 -4.640625 6.859375l-3.671875 -4.40625zm47.46875 13.703133l-21.78125 0l0 7.09375l21.78125 0l0 -7.09375zm-26.671875 -4.6562576l31.578125 0l0 18.609383l-4.90625 0l0 -2.203125l-21.78125 0l0 2.9375l-4.890625 0l0 -19.343758zm1.46875 -4.15625l0 -4.65625l27.65625 0l0 4.65625l-27.65625 0zm0 -8.5625l0 -4.65625l27.65625 0l0 4.65625l-27.65625 0zm-5.625 -12.984375l39.40625 0l0 4.65625l-39.40625 0l0 -4.65625zm5.625 -8.796875l27.65625 0l0 4.640625l-27.65625 0l0 -4.640625zm50.171875 40.375008q4.15625 -7.3437576 6.125 -13.453133l-15.671875 0l0 -4.65625l56.546906 0l0 4.65625l-35.25003 0q-0.984375 2.9375 -1.953125 5.140625l29.12503 0q-1.96875 14.671883 -5.390686 19.328133q-1.953125 2.453125 -7.3437195 1.953125l-6.609375 -0.734375l-0.234375 -5.375l7.5780945 0.734375q2.453125 0.234375 3.671875 -2.453125q0.5 -1.21875 2.203125 -8.8125l-24.46872 0q-0.984375 2.453125 -2.703125 5.390625l-5.625 -1.71875zm5.625 -36.218758l0 8.078125l26.203094 0l0 -8.078125l-26.203094 0zm26.203094 14.4375l0 -1.71875l-26.203094 0l0 2.203125l-4.890625 0l0 -19.578125l35.984406 0l0 19.09375l-4.890686 0zm52.37506 -4.65625q-4.171875 24.484383 -10.046875 30.359383q-3.171875 3.171875 -6.609375 3.171875q-3.90625 0 -6.109375 -2.203125q-5.875 -5.875 -5.875 -14.671883q0 -10.78125 7.59375 -18.359375q8.3125 -8.328125 20.3125 -8.328125q10.765625 0 16.875 6.125q6.859375 6.84375 6.859375 16.15625q0 10.031258 -6.359375 16.390633q-4.15625 4.15625 -12.734375 8.078125l-5.140625 -5.140625q8.578125 -2.6875 13.46875 -7.59375q4.640625 -4.6406326 4.640625 -11.250008q0 -7.828125 -5.125 -12.96875q-5.140625 -5.140625 -16.15625 -4.65625l4.40625 2.203125q2.9375 1.21875 0 2.6875zm-5.640625 -4.640625q-6.359375 1.46875 -11.015625 6.109375q-6.359375 6.375 -6.359375 15.671875q0 5.6250076 3.671875 9.296883q0.734375 0.734375 2.203125 0.734375q1.46875 0 3.1875 -1.71875q5.625 -5.6250076 8.3125 -30.093758z" fill-rule="nonzero"/><path fill="#ffffff" d="m291.97794 217.03717l0 -19.0l-17.28125 -25.84375l7.21875 0l8.84375 13.515625q2.4375 3.796875 4.546875 7.59375q2.03125 -3.53125 4.90625 -7.9375l8.6875 -13.171875l6.90625 0l-17.890625 25.84375l0 19.0l-5.9375 0zm20.64801 -16.25q0 -9.015625 5.015625 -13.359375q4.203125 -3.609375 10.21875 -3.609375q6.703125 0 10.953125 4.390625q4.25 4.390625 4.25 12.125q0 6.265625 -1.875 9.859375q-1.875 3.59375 -5.484375 5.59375q-3.59375 1.984375 -7.84375 1.984375q-6.8125 0 -11.03125 -4.375q-4.203125 -4.375 -4.203125 -12.609375zm5.65625 0q0 6.25 2.71875 9.359375q2.734375 3.09375 6.859375 3.09375q4.109375 0 6.828125 -3.109375q2.71875 -3.125 2.71875 -9.515625q0 -6.03125 -2.734375 -9.140625q-2.734375 -3.109375 -6.8125 -3.109375q-4.125 0 -6.859375 3.09375q-2.71875 3.09375 -2.71875 9.328125zm52.533905 16.25l0 -4.765625q-3.796875 5.5 -10.3125 5.5q-2.875 0 -5.375 -1.09375q-2.484375 -1.109375 -3.703125 -2.765625q-1.203125 -1.671875 -1.6875 -4.09375q-0.34375 -1.625 -0.34375 -5.140625l0 -20.125l5.515625 0l0 18.015625q0 4.3125 0.328125 5.8125q0.53125 2.171875 2.203125 3.421875q1.6875 1.234375 4.171875 1.234375q2.46875 0 4.640625 -1.265625q2.171875 -1.28125 3.078125 -3.46875q0.90625 -2.1875 0.90625 -6.34375l0 -17.40625l5.5 0l0 32.484375l-4.921875 0zm25.67456 0l0 -39.5625l-14.78125 0l0 -5.28125l35.546875 0l0 5.28125l-14.828125 0l0 39.5625l-5.9375 0zm45.119293 0l0 -4.765625q-3.796875 5.5 -10.3125 5.5q-2.875 0 -5.375 -1.09375q-2.484375 -1.109375 -3.703125 -2.765625q-1.203125 -1.671875 -1.6875 -4.09375q-0.34375 -1.625 -0.34375 -5.140625l0 -20.125l5.515625 0l0 18.015625q0 4.3125 0.328125 5.8125q0.53125 2.171875 2.203125 3.421875q1.6875 1.234375 4.171875 1.234375q2.46875 0 4.640625 -1.265625q2.171875 -1.28125 3.078125 -3.46875q0.90625 -2.1875 0.90625 -6.34375l0 -17.40625l5.5 0l0 32.484375l-4.921875 0zm18.627655 0l-5.109375 0l0 -44.84375l5.515625 0l0 16.0q3.484375 -4.375 8.90625 -4.375q2.984375 0 5.65625 1.203125q2.6875 1.203125 4.40625 3.390625q1.734375 2.1875 2.71875 5.28125q0.984375 3.09375 0.984375 6.609375q0 8.359375 -4.140625 12.921875q-4.125 4.546875 -9.90625 4.546875q-5.75 0 -9.03125 -4.796875l0 4.0625zm-0.0625 -16.484375q0 5.84375 1.59375 8.4375q2.609375 4.25 7.046875 4.25q3.609375 0 6.234375 -3.125q2.625 -3.140625 2.625 -9.359375q0 -6.359375 -2.53125 -9.390625q-2.515625 -3.03125 -6.09375 -3.03125q-3.609375 0 -6.25 3.140625q-2.625 3.140625 -2.625 9.078125zm52.08081 6.015625l5.6875 0.703125q-1.34375 5.0 -4.984375 7.75q-3.640625 2.75 -9.296875 2.75q-7.140625 0 -11.3125 -4.390625q-4.171875 -4.390625 -4.171875 -12.3125q0 -8.203125 4.21875 -12.71875q4.21875 -4.53125 10.953125 -4.53125q6.515625 0 10.640625 4.4375q4.140625 4.421875 4.140625 12.46875q0 0.5 -0.03125 1.46875l-24.234375 0q0.3125 5.359375 3.03125 8.203125q2.71875 2.84375 6.796875 2.84375q3.015625 0 5.15625 -1.578125q2.15625 -1.59375 3.40625 -5.09375zm-18.078125 -8.890625l18.140625 0q-0.375 -4.109375 -2.078125 -6.15625q-2.640625 -3.1875 -6.828125 -3.1875q-3.796875 0 -6.390625 2.546875q-2.578125 2.53125 -2.84375 6.796875z" fill-rule="nonzero"/><path fill="#ffffff" d="m565.02423 179.83405q1.96875 0 3.1875 -1.21875q1.21875 -1.234375 1.21875 -3.1875q0 -1.953125 -1.21875 -3.1875q-1.21875 -1.21875 -3.1875 -1.21875q-1.953125 0 -3.171875 1.21875q-1.234375 1.234375 -1.234375 3.1875q0 1.953125 1.234375 3.1875q1.21875 1.21875 3.171875 1.21875zm0 2.453125q-2.9375 0 -4.890625 -1.96875q-1.953125 -1.953125 -1.953125 -4.890625q0 -2.9375 1.953125 -4.890625q1.953125 -1.953125 4.890625 -1.953125q2.9375 0 4.890625 1.953125q1.96875 1.953125 1.96875 4.890625q0 2.9375 -1.96875 4.890625q-1.953125 1.96875 -4.890625 1.96875zm-16.640625 -2.203125q11.265625 10.03125 28.640625 24.953125l-5.390625 4.90625q-12.71875 -11.75 -23.984375 -22.03125q-2.203125 -1.953125 -2.9375 -1.953125q-1.21875 0 -2.9375 1.953125q-7.09375 8.328125 -13.703125 15.421875l-4.65625 -5.390625q9.546875 -9.296875 18.109375 -17.625q1.46875 -1.46875 3.4375 -1.46875q1.953125 0 3.421875 1.234375zm34.510986 16.890625l0 -5.390625l54.578125 0l0 5.390625l-54.578125 0zm110.130615 -7.109375q-12.46875 20.078125 -38.65625 28.390625q-0.734375 2.9375 -2.453125 0.25l-3.421875 -5.390625q26.671875 -5.875 40.125 -27.65625l4.40625 4.40625zm-37.6875 6.609375q-7.34375 -5.375 -12.234375 -7.828125l3.671875 -5.140625q6.125 3.1875 12.484375 7.828125l-3.921875 5.140625zm7.34375 -14.4375q-6.609375 -4.65625 -12.234375 -7.828125l3.1875 -5.140625q6.59375 3.671875 12.46875 7.828125l-3.421875 5.140625zm20.3125 -16.640625q4.171875 3.1875 8.328125 7.578125l-3.1875 3.1875q-4.40625 -4.890625 -8.3125 -7.828125l3.171875 -2.9375zm-5.875 4.15625q4.171875 3.421875 8.328125 7.828125l-3.1875 2.9375q-4.15625 -4.40625 -8.5625 -8.078125l3.421875 -2.6875z" fill-rule="nonzero"/><path fill="#ffffff" d="m328.60294 284.8934q-13.703125 -10.03125 -25.21875 -20.3125q-1.46875 -1.21875 -2.9375 -1.21875q-1.46875 0 -2.4375 0.96875q-11.265625 10.046875 -15.421875 13.46875l-4.890625 -4.890625q6.609375 -3.921875 17.375 -13.953125q2.4375 -2.203125 4.890625 -2.203125q3.1875 0 5.875 2.203125q18.59375 15.421875 28.390625 20.3125l-5.625 5.625z" fill-rule="nonzero"/></g></svg>